<mxfile host="65bd71144e">
    <diagram id="T9uuaTeBy4bPSP1g8a4x" name="Page-1">
        <mxGraphModel dx="1280" dy="971" grid="1" gridSize="10" guides="1" tooltips="1" connect="1" arrows="1" fold="1" page="1" pageScale="1" pageWidth="827" pageHeight="1169" background="#FFFFFF" math="0" shadow="0">
            <root>
                <mxCell id="0"/>
                <mxCell id="1" parent="0"/>
                <mxCell id="243" value="" style="rounded=0;whiteSpace=wrap;html=1;fillColor=none;fontColor=#333333;strokeColor=#666666;" parent="1" vertex="1">
                    <mxGeometry x="580" y="80" width="100" height="100" as="geometry"/>
                </mxCell>
                <mxCell id="224" value="" style="rounded=0;whiteSpace=wrap;html=1;fillColor=#dae8fc;strokeColor=none;" parent="1" vertex="1">
                    <mxGeometry x="400" y="140" width="80" height="180" as="geometry"/>
                </mxCell>
                <mxCell id="223" value="" style="rounded=0;whiteSpace=wrap;html=1;fillColor=#dae8fc;strokeColor=none;" parent="1" vertex="1">
                    <mxGeometry x="240" y="160" width="80" height="160" as="geometry"/>
                </mxCell>
                <mxCell id="218" value="" style="shape=parallelogram;perimeter=parallelogramPerimeter;whiteSpace=wrap;html=1;fixedSize=1;fillColor=#dae8fc;strokeColor=none;size=80;" parent="1" vertex="1">
                    <mxGeometry x="240" y="140" width="160" height="20" as="geometry"/>
                </mxCell>
                <mxCell id="214" value="" style="rounded=0;whiteSpace=wrap;html=1;fillColor=#dae8fc;strokeColor=none;" parent="1" vertex="1">
                    <mxGeometry x="480" y="120" width="80" height="200" as="geometry"/>
                </mxCell>
                <mxCell id="213" value="" style="rounded=0;whiteSpace=wrap;html=1;fillColor=#dae8fc;strokeColor=none;" parent="1" vertex="1">
                    <mxGeometry x="320" y="140" width="80" height="180" as="geometry"/>
                </mxCell>
                <mxCell id="207" value="" style="rounded=0;whiteSpace=wrap;html=1;fillColor=#dae8fc;strokeColor=none;" parent="1" vertex="1">
                    <mxGeometry x="160" y="160" width="80" height="160" as="geometry"/>
                </mxCell>
                <mxCell id="179" value="0" style="rounded=0;whiteSpace=wrap;html=1;strokeColor=none;fillColor=none;align=right;" parent="1" vertex="1">
                    <mxGeometry x="110" y="300" width="40" height="40" as="geometry"/>
                </mxCell>
                <mxCell id="180" value="100" style="rounded=0;whiteSpace=wrap;html=1;strokeColor=none;fillColor=none;align=right;" parent="1" vertex="1">
                    <mxGeometry x="110" y="260" width="40" height="40" as="geometry"/>
                </mxCell>
                <mxCell id="181" value="200" style="rounded=0;whiteSpace=wrap;html=1;strokeColor=none;fillColor=none;align=right;" parent="1" vertex="1">
                    <mxGeometry x="110" y="220" width="40" height="40" as="geometry"/>
                </mxCell>
                <mxCell id="182" value="300" style="rounded=0;whiteSpace=wrap;html=1;strokeColor=none;fillColor=none;align=right;" parent="1" vertex="1">
                    <mxGeometry x="110" y="180" width="40" height="40" as="geometry"/>
                </mxCell>
                <mxCell id="183" value="400" style="rounded=0;whiteSpace=wrap;html=1;strokeColor=none;fillColor=none;align=right;" parent="1" vertex="1">
                    <mxGeometry x="110" y="140" width="40" height="40" as="geometry"/>
                </mxCell>
                <mxCell id="184" value="500" style="rounded=0;whiteSpace=wrap;html=1;strokeColor=none;fillColor=none;align=right;" parent="1" vertex="1">
                    <mxGeometry x="110" y="100" width="40" height="40" as="geometry"/>
                </mxCell>
                <mxCell id="185" value="600" style="rounded=0;whiteSpace=wrap;html=1;strokeColor=none;fillColor=none;align=right;" parent="1" vertex="1">
                    <mxGeometry x="110" y="60" width="40" height="40" as="geometry"/>
                </mxCell>
                <mxCell id="190" value="" style="endArrow=none;html=1;exitX=1;exitY=0.5;exitDx=0;exitDy=0;fillColor=#f5f5f5;strokeColor=#666666;" parent="1" source="184" edge="1">
                    <mxGeometry width="50" height="50" relative="1" as="geometry">
                        <mxPoint x="150" y="119.75999999999999" as="sourcePoint"/>
                        <mxPoint x="560" y="120" as="targetPoint"/>
                    </mxGeometry>
                </mxCell>
                <mxCell id="191" value="" style="endArrow=none;html=1;rounded=0;exitX=1;exitY=0.5;exitDx=0;exitDy=0;fillColor=#f5f5f5;strokeColor=#666666;" parent="1" source="185" edge="1">
                    <mxGeometry width="50" height="50" relative="1" as="geometry">
                        <mxPoint x="150" y="79.75999999999999" as="sourcePoint"/>
                        <mxPoint x="560" y="80" as="targetPoint"/>
                    </mxGeometry>
                </mxCell>
                <mxCell id="192" value="" style="endArrow=none;html=1;" parent="1" edge="1">
                    <mxGeometry width="50" height="50" relative="1" as="geometry">
                        <mxPoint x="160" y="330" as="sourcePoint"/>
                        <mxPoint x="160" y="320" as="targetPoint"/>
                    </mxGeometry>
                </mxCell>
                <mxCell id="193" value="" style="endArrow=none;html=1;" parent="1" edge="1">
                    <mxGeometry width="50" height="50" relative="1" as="geometry">
                        <mxPoint x="240" y="330" as="sourcePoint"/>
                        <mxPoint x="240" y="320" as="targetPoint"/>
                    </mxGeometry>
                </mxCell>
                <mxCell id="194" value="" style="endArrow=none;html=1;" parent="1" edge="1">
                    <mxGeometry width="50" height="50" relative="1" as="geometry">
                        <mxPoint x="320" y="330" as="sourcePoint"/>
                        <mxPoint x="320" y="320" as="targetPoint"/>
                    </mxGeometry>
                </mxCell>
                <mxCell id="195" value="" style="endArrow=none;html=1;" parent="1" edge="1">
                    <mxGeometry width="50" height="50" relative="1" as="geometry">
                        <mxPoint x="400" y="330" as="sourcePoint"/>
                        <mxPoint x="400" y="320" as="targetPoint"/>
                    </mxGeometry>
                </mxCell>
                <mxCell id="196" value="" style="endArrow=none;html=1;" parent="1" edge="1">
                    <mxGeometry width="50" height="50" relative="1" as="geometry">
                        <mxPoint x="480" y="330" as="sourcePoint"/>
                        <mxPoint x="480" y="320" as="targetPoint"/>
                    </mxGeometry>
                </mxCell>
                <mxCell id="197" value="" style="endArrow=none;html=1;" parent="1" edge="1">
                    <mxGeometry width="50" height="50" relative="1" as="geometry">
                        <mxPoint x="560" y="330" as="sourcePoint"/>
                        <mxPoint x="560" y="320" as="targetPoint"/>
                    </mxGeometry>
                </mxCell>
                <mxCell id="198" value="&lt;b&gt;Features&lt;/b&gt;" style="rounded=0;whiteSpace=wrap;html=1;strokeColor=none;fillColor=none;align=center;rotation=-90;" parent="1" vertex="1">
                    <mxGeometry x="-30" y="170" width="280" height="20" as="geometry"/>
                </mxCell>
                <mxCell id="199" value="&lt;b&gt;Time&lt;/b&gt;" style="rounded=0;whiteSpace=wrap;html=1;strokeColor=none;fillColor=none;align=center;rotation=0;" parent="1" vertex="1">
                    <mxGeometry x="120" y="350" width="480" height="20" as="geometry"/>
                </mxCell>
                <mxCell id="200" value="&lt;span style=&quot;font-weight: normal;&quot;&gt;1&lt;/span&gt;" style="rounded=0;whiteSpace=wrap;html=1;strokeColor=none;fillColor=none;align=center;rotation=0;fontStyle=1" parent="1" vertex="1">
                    <mxGeometry x="120" y="330" width="80" height="20" as="geometry"/>
                </mxCell>
                <mxCell id="201" value="&lt;span style=&quot;font-weight: normal;&quot;&gt;2&lt;/span&gt;" style="rounded=0;whiteSpace=wrap;html=1;strokeColor=none;fillColor=none;align=center;rotation=0;fontStyle=1" parent="1" vertex="1">
                    <mxGeometry x="200" y="330" width="80" height="20" as="geometry"/>
                </mxCell>
                <mxCell id="202" value="&lt;span style=&quot;font-weight: normal;&quot;&gt;3&lt;/span&gt;" style="rounded=0;whiteSpace=wrap;html=1;strokeColor=none;fillColor=none;align=center;rotation=0;fontStyle=1" parent="1" vertex="1">
                    <mxGeometry x="280" y="330" width="80" height="20" as="geometry"/>
                </mxCell>
                <mxCell id="203" value="&lt;span style=&quot;font-weight: normal;&quot;&gt;4&lt;/span&gt;" style="rounded=0;whiteSpace=wrap;html=1;strokeColor=none;fillColor=none;align=center;rotation=0;fontStyle=1" parent="1" vertex="1">
                    <mxGeometry x="360" y="330" width="80" height="20" as="geometry"/>
                </mxCell>
                <mxCell id="204" value="&lt;span style=&quot;font-weight: normal;&quot;&gt;5&lt;/span&gt;" style="rounded=0;whiteSpace=wrap;html=1;strokeColor=none;fillColor=none;align=center;rotation=0;fontStyle=1" parent="1" vertex="1">
                    <mxGeometry x="440" y="330" width="80" height="20" as="geometry"/>
                </mxCell>
                <mxCell id="205" value="&lt;span style=&quot;font-weight: normal;&quot;&gt;6&lt;/span&gt;" style="rounded=0;whiteSpace=wrap;html=1;strokeColor=none;fillColor=none;align=center;rotation=0;fontStyle=1" parent="1" vertex="1">
                    <mxGeometry x="520" y="330" width="80" height="20" as="geometry"/>
                </mxCell>
                <mxCell id="219" value="" style="shape=parallelogram;perimeter=parallelogramPerimeter;whiteSpace=wrap;html=1;fixedSize=1;fillColor=#dae8fc;strokeColor=none;size=80;" parent="1" vertex="1">
                    <mxGeometry x="400" y="120" width="160" height="20" as="geometry"/>
                </mxCell>
                <mxCell id="225" value="" style="endArrow=none;html=1;rounded=0;entryX=0.5;entryY=0;entryDx=0;entryDy=0;fillColor=#dae8fc;strokeColor=#6c8ebf;" parent="1" target="218" edge="1">
                    <mxGeometry width="50" height="50" relative="1" as="geometry">
                        <mxPoint x="240" y="160" as="sourcePoint"/>
                        <mxPoint x="360" y="120" as="targetPoint"/>
                    </mxGeometry>
                </mxCell>
                <mxCell id="226" value="" style="endArrow=none;html=1;rounded=0;entryX=1;entryY=0;entryDx=0;entryDy=0;exitX=0;exitY=0;exitDx=0;exitDy=0;fillColor=#dae8fc;strokeColor=#6c8ebf;" parent="1" source="213" target="213" edge="1">
                    <mxGeometry width="50" height="50" relative="1" as="geometry">
                        <mxPoint x="250" y="170" as="sourcePoint"/>
                        <mxPoint x="329.9999999999999" y="150" as="targetPoint"/>
                    </mxGeometry>
                </mxCell>
                <mxCell id="227" value="" style="endArrow=none;html=1;rounded=0;entryX=0.5;entryY=0;entryDx=0;entryDy=0;exitX=0;exitY=0;exitDx=0;exitDy=0;fillColor=#dae8fc;strokeColor=#6c8ebf;" parent="1" source="224" target="219" edge="1">
                    <mxGeometry width="50" height="50" relative="1" as="geometry">
                        <mxPoint x="330" y="150" as="sourcePoint"/>
                        <mxPoint x="410" y="150" as="targetPoint"/>
                    </mxGeometry>
                </mxCell>
                <mxCell id="228" value="" style="endArrow=none;html=1;rounded=0;entryX=1;entryY=0;entryDx=0;entryDy=0;exitX=0.5;exitY=0;exitDx=0;exitDy=0;fillColor=#dae8fc;strokeColor=#6c8ebf;" parent="1" source="219" target="219" edge="1">
                    <mxGeometry width="50" height="50" relative="1" as="geometry">
                        <mxPoint x="410" y="150" as="sourcePoint"/>
                        <mxPoint x="490" y="130" as="targetPoint"/>
                    </mxGeometry>
                </mxCell>
                <mxCell id="229" value="" style="endArrow=none;html=1;rounded=0;fillColor=#dae8fc;strokeColor=#6c8ebf;exitX=1;exitY=0;exitDx=0;exitDy=0;" parent="1" source="207" edge="1">
                    <mxGeometry width="50" height="50" relative="1" as="geometry">
                        <mxPoint x="250" y="170" as="sourcePoint"/>
                        <mxPoint x="160" y="160" as="targetPoint"/>
                    </mxGeometry>
                </mxCell>
                <mxCell id="234" value="" style="shape=manualInput;whiteSpace=wrap;html=1;fillColor=#d5e8d4;size=180;strokeColor=none;" parent="1" vertex="1">
                    <mxGeometry x="160" y="140" width="400" height="180" as="geometry"/>
                </mxCell>
                <mxCell id="236" value="" style="endArrow=none;html=1;rounded=0;exitX=0;exitY=1;exitDx=0;exitDy=0;entryX=1;entryY=0;entryDx=0;entryDy=0;fillColor=#d5e8d4;strokeColor=#82b366;" parent="1" source="234" target="234" edge="1">
                    <mxGeometry width="50" height="50" relative="1" as="geometry">
                        <mxPoint x="330" y="190" as="sourcePoint"/>
                        <mxPoint x="380" y="140" as="targetPoint"/>
                    </mxGeometry>
                </mxCell>
                <mxCell id="238" value="" style="shape=manualInput;whiteSpace=wrap;html=1;fillColor=#ffe6cc;size=140;strokeColor=none;" parent="1" vertex="1">
                    <mxGeometry x="200" y="240" width="360" height="80" as="geometry"/>
                </mxCell>
                <mxCell id="239" value="" style="endArrow=none;html=1;rounded=0;exitX=0;exitY=1;exitDx=0;exitDy=0;entryX=1;entryY=0;entryDx=0;entryDy=0;fillColor=#ffe6cc;strokeColor=#d79b00;" parent="1" source="238" target="238" edge="1">
                    <mxGeometry width="50" height="50" relative="1" as="geometry">
                        <mxPoint x="170" y="330" as="sourcePoint"/>
                        <mxPoint x="570" y="150.0000000000001" as="targetPoint"/>
                    </mxGeometry>
                </mxCell>
                <mxCell id="240" value="Total" style="rounded=0;whiteSpace=wrap;html=1;fillColor=#dae8fc;strokeColor=#6c8ebf;" parent="1" vertex="1">
                    <mxGeometry x="590" y="90" width="80" height="20" as="geometry"/>
                </mxCell>
                <mxCell id="241" value="InProgress" style="rounded=0;whiteSpace=wrap;html=1;fillColor=#d5e8d4;strokeColor=#82b366;" parent="1" vertex="1">
                    <mxGeometry x="590" y="120" width="80" height="20" as="geometry"/>
                </mxCell>
                <mxCell id="242" value="Done" style="rounded=0;whiteSpace=wrap;html=1;fillColor=#ffe6cc;strokeColor=#d79b00;" parent="1" vertex="1">
                    <mxGeometry x="590" y="150" width="80" height="20" as="geometry"/>
                </mxCell>
                <mxCell id="166" value="" style="endArrow=none;html=1;exitX=1;exitY=0.5;exitDx=0;exitDy=0;" parent="1" edge="1">
                    <mxGeometry width="50" height="50" relative="1" as="geometry">
                        <mxPoint x="150" y="320" as="sourcePoint"/>
                        <mxPoint x="560" y="320" as="targetPoint"/>
                    </mxGeometry>
                </mxCell>
                <mxCell id="164" value="" style="endArrow=none;html=1;" parent="1" edge="1">
                    <mxGeometry width="50" height="50" relative="1" as="geometry">
                        <mxPoint x="160" y="320" as="sourcePoint"/>
                        <mxPoint x="160" y="40" as="targetPoint"/>
                    </mxGeometry>
                </mxCell>
                <mxCell id="244" value="Queue.Length" style="endArrow=block;startArrow=block;html=1;rounded=0;startFill=1;endFill=1;startSize=3;endSize=3;labelBackgroundColor=none;" parent="1" edge="1">
                    <mxGeometry x="-0.0169" y="40" width="50" height="50" relative="1" as="geometry">
                        <mxPoint x="382" y="222" as="sourcePoint"/>
                        <mxPoint x="382" y="278" as="targetPoint"/>
                        <mxPoint as="offset"/>
                    </mxGeometry>
                </mxCell>
                <mxCell id="245" value="Queue.Duration" style="endArrow=block;startArrow=block;html=1;rounded=0;startFill=1;endFill=1;startSize=3;endSize=3;labelBackgroundColor=none;" parent="1" edge="1">
                    <mxGeometry y="10" width="50" height="50" relative="1" as="geometry">
                        <mxPoint x="385" y="220" as="sourcePoint"/>
                        <mxPoint x="559" y="220" as="targetPoint"/>
                        <mxPoint as="offset"/>
                    </mxGeometry>
                </mxCell>
            </root>
        </mxGraphModel>
    </diagram>
</mxfile>